<svg width="20" height="20" viewBox="0 0 20 20" fill="none" xmlns="http://www.w3.org/2000/svg">
<path d="M10 1.66699C5.40835 1.66699 1.66669 5.40866 1.66669 10.0003C1.66669 14.592 5.40835 18.3337 10 18.3337C14.5917 18.3337 18.3334 14.592 18.3334 10.0003C18.3334 5.40866 14.5917 1.66699 10 1.66699ZM10.8334 13.3337C10.8334 13.792 10.4584 14.167 10 14.167C9.54169 14.167 9.16669 13.792 9.16669 13.3337V10.0003C9.16669 9.54199 9.54169 9.16699 10 9.16699C10.4584 9.16699 10.8334 9.54199 10.8334 10.0003V13.3337ZM10 7.50032C9.54169 7.50032 9.16669 7.12532 9.16669 6.66699C9.16669 6.20866 9.54169 5.83366 10 5.83366C10.4584 5.83366 10.8334 6.20866 10.8334 6.66699C10.8334 7.12532 10.4584 7.50032 10 7.50032Z" fill="#B2B2CD"/>
</svg>
