<svg width="20" height="20" viewBox="0 0 20 20" fill="none" xmlns="http://www.w3.org/2000/svg">
<path d="M11.6662 13.466L8.36621 10.166" stroke="#06797E" stroke-width="1.5" stroke-miterlimit="10" stroke-linecap="round" stroke-linejoin="round"/>
<path d="M11.633 10.1992L8.33301 13.4992" stroke="#06797E" stroke-width="1.5" stroke-miterlimit="10" stroke-linecap="round" stroke-linejoin="round"/>
<path d="M8.33366 4.99935H11.667C13.3337 4.99935 13.3337 4.16602 13.3337 3.33268C13.3337 1.66602 12.5003 1.66602 11.667 1.66602H8.33366C7.50033 1.66602 6.66699 1.66602 6.66699 3.33268C6.66699 4.99935 7.50033 4.99935 8.33366 4.99935Z" stroke="#06797E" stroke-width="1.5" stroke-miterlimit="10" stroke-linecap="round" stroke-linejoin="round"/>
<path d="M13.3333 3.34961C16.1083 3.49961 17.5 4.52461 17.5 8.33294V13.3329C17.5 16.6663 16.6667 18.3329 12.5 18.3329H7.5C3.33333 18.3329 2.5 16.6663 2.5 13.3329V8.33294C2.5 4.53294 3.89167 3.49961 6.66667 3.34961" stroke="#06797E" stroke-width="1.5" stroke-miterlimit="10" stroke-linecap="round" stroke-linejoin="round"/>
</svg>
